<svg width="16" height="17" viewBox="0 0 16 17" fill="none" xmlns="http://www.w3.org/2000/svg">
<path d="M8 0.442383C3.60315 0.442383 0 4.1347 0 8.60162C0 13.0426 3.57031 16.6974 8 16.6974C12.4242 16.6974 16 13.0481 16 8.60162C16 4.1347 12.3969 0.442383 8 0.442383ZM9.40625 15.6021C8.9563 15.6973 8.47815 15.7449 8 15.7449C7.52185 15.7449 7.0437 15.6973 6.59375 15.6021V13.3734C6.59375 12.84 6.73438 12.6495 6.92188 12.3923C7.01733 12.2814 7.07495 12.182 7.50305 11.5257L6.78125 11.4113C4.92493 11.1351 4.19373 10.154 3.90308 9.3921C3.52808 8.37306 3.72498 7.09669 4.40002 6.28724C4.50317 6.16335 4.58752 5.95376 4.51257 5.73475C4.37183 5.2966 4.39062 4.60137 4.48438 4.33461C4.98145 4.40679 5.49255 4.76855 5.91882 5.02997C6.11523 5.14642 6.21826 5.11566 6.3125 5.12521C6.65503 5.05279 7.18933 4.87755 8.0094 4.87755C8.51562 4.87755 9.05005 4.9537 9.57507 5.10612C9.66895 5.10388 9.81982 5.18499 10.0813 5.02997C10.5269 4.75416 11.0206 4.40481 11.5156 4.33461C11.6094 4.60137 11.6282 5.2966 11.4875 5.73475C11.4125 5.95376 11.4968 6.16335 11.6001 6.28724C12.275 7.09682 12.4719 8.37306 12.0969 9.3921C11.8063 10.154 11.0751 11.1351 9.21875 11.4113L8.49695 11.5257C8.93945 12.204 8.98608 12.2854 9.07825 12.3923C9.26562 12.6495 9.40625 12.84 9.40625 13.3734V15.6021ZM10.3438 15.3259V13.3734C10.3438 12.8304 10.2312 12.4686 10.0812 12.2018C11.5062 11.8114 12.5188 10.9541 12.9688 9.72545C13.4469 8.43023 13.2313 6.88723 12.4343 5.82045C12.5751 5.18239 12.5751 4.16322 12.2375 3.687C12.0875 3.47754 11.8812 3.3632 11.6188 3.3632C11.6094 3.3632 11.6094 3.3632 11.6094 3.3632C10.8824 3.40313 10.3103 3.77506 9.6969 4.15368C9.1344 4.00126 8.5625 3.92511 7.9906 3.92511C7.40942 3.92511 6.82812 4.01081 6.31262 4.15368C5.66687 3.75807 5.10022 3.40214 4.35315 3.3632C4.11877 3.3632 3.91248 3.47754 3.76245 3.687C3.42505 4.16322 3.42505 5.18239 3.56567 5.82045C2.76868 6.88723 2.5531 8.43966 3.03125 9.72545C3.4812 10.9541 4.49377 11.8114 5.91882 12.2018C5.80249 12.4085 5.71045 12.6753 5.67419 13.0363C5.38635 13.1371 5.13672 13.17 4.90454 13.1007C4.65967 13.0271 4.46887 12.8611 4.3031 12.5778C3.93079 11.9424 3.29663 11.4236 2.57458 11.4911L2.65698 12.4398C2.99133 12.4087 3.3241 12.7681 3.49695 13.0643C3.7821 13.5522 4.16626 13.8722 4.63904 14.014C4.98999 14.1191 5.31079 14.1166 5.65625 14.0417V15.3259C2.9281 14.3543 0.9375 11.7066 0.9375 8.60162C0.9375 4.65854 4.11877 1.39482 8 1.39482C11.8812 1.39482 15.0625 4.65854 15.0625 8.60162C15.0625 11.7066 13.0719 14.3543 10.3438 15.3259Z" fill="white"/>
</svg>
