<svg width="16" height="17" viewBox="0 0 16 17" fill="none" xmlns="http://www.w3.org/2000/svg">
<path fill-rule="evenodd" clip-rule="evenodd" d="M4.69572 0.797014C3.39342 0.85671 2.26465 1.18018 1.3532 2.10225C0.438556 3.02917 0.124113 4.18047 0.0652067 5.48977C0.0285891 6.30697 -0.185531 12.4807 0.435373 14.0998C0.854085 15.1921 1.67875 16.032 2.76374 16.4587C3.27002 16.6588 3.84795 16.7942 4.69572 16.8337C11.7844 17.1596 14.4121 16.9822 15.5201 14.0998C15.7168 13.5868 15.8521 13.0001 15.8895 12.141C16.2135 4.92089 15.837 3.35589 14.6015 2.10225C13.6216 1.10919 12.469 0.433187 4.69572 0.797014ZM4.76098 15.3816C3.98485 15.3461 3.56376 15.2148 3.28276 15.1043C2.57589 14.8251 2.04493 14.2879 1.7719 13.574C1.29905 12.3438 1.45588 6.50072 1.49807 5.55525C1.53946 4.62914 1.72414 3.78274 2.36733 3.1293C3.16336 2.32258 4.19182 1.92722 11.1945 2.24829C12.1083 2.29024 12.9434 2.47748 13.5882 3.1293C14.3842 3.93601 14.779 4.98891 14.4574 12.0759C14.4224 12.8624 14.2927 13.2892 14.1836 13.574C13.4632 15.4496 11.8059 15.71 4.76098 15.3816ZM11.2717 4.50875C11.2717 5.0428 11.6992 5.47707 12.227 5.47707C12.7547 5.47707 13.183 5.0428 13.183 4.50875C13.183 3.97471 12.7547 3.54084 12.227 3.54084C11.6992 3.54084 11.2717 3.97471 11.2717 4.50875ZM3.89013 8.81497C3.89013 11.1028 5.72021 12.9577 7.97776 12.9577C10.2353 12.9577 12.0654 11.1028 12.0654 8.81497C12.0654 6.52713 10.2353 4.67345 7.97776 4.67345C5.72021 4.67345 3.89013 6.52713 3.89013 8.81497ZM5.32458 8.81497C5.32458 7.33063 6.51226 6.12631 7.97776 6.12631C9.44325 6.12631 10.6309 7.33063 10.6309 8.81497C10.6309 10.3001 9.44325 11.5048 7.97776 11.5048C6.51226 11.5048 5.32458 10.3001 5.32458 8.81497Z" fill="white"/>
</svg>
