<svg width="18" height="19" viewBox="0 0 18 19" fill="none" xmlns="http://www.w3.org/2000/svg">
<path fill-rule="evenodd" clip-rule="evenodd" d="M14.0882 12.1084C14.0882 10.708 13.0165 9.59508 11.8232 9.59508C10.9114 9.59508 10.1053 9.59508 9.56979 10.7674C9.47092 10.9838 9.35647 11.614 9.35647 11.9257V17.978H6.45967V10.2904V6.49859H9.46776L9.61614 7.99402H9.68107C10.1154 7.28344 11.1024 6.49859 12.8832 6.49859C15.054 6.49859 17 8.24421 17 11.444V17.978H14.0882V12.1084ZM2.55929 3.7125C1.61156 3.7125 1 3.03121 1 2.18939C1 1.32711 1.63136 0.665228 2.59819 0.665228C3.56502 0.665228 4.15748 1.32676 4.17728 2.18939C4.17762 3.03121 3.56537 3.7125 2.55929 3.7125ZM1.34896 17.978L1.34896 6.49859H3.89251L3.89251 17.978H1.34896Z" stroke="white" stroke-width="1.2"/>
</svg>
